<?xml version="1.0" encoding="UTF-8"?>
<!-- CrowdStrike icon approximated from provided image -->
<svg xmlns="http://www.w3.org/2000/svg" viewBox="0 0 256 256" role="img" aria-label="CrowdStrike">
  <g fill="#FF3B1C">
    <path d="M10 30c24 36 56 58 99 78 28 13 45 19 54 24 8 4 11 12 7 20-3 7-8 12-8 18 0 8 10 14 24 17l18 4-18 8c-13 6-30 8-43 4-12-4-23-13-34-24-9-10-18-24-32-37-21-20-52-36-78-57 24 16 54 28 76 41-20-17-45-31-62-56z"/>
    <path d="M39 36c20 31 47 51 79 69 25 14 43 23 55 33-15-4-32-11-48-20-23-13-52-29-86-61z"/>
    <path d="M15 63c20 24 44 41 72 56 17 10 30 17 40 27-17-5-33-12-49-22C52 109 30 91 15 63z"/>
    <path d="M168 188c16-6 30-7 44-5 12 2 21 6 30 14-11-4-21-6-31-7-14-1-27 1-43 7z"/>
    <path d="M195 205c7 0 13 3 16 8-7-2-12 0-15 4-2 3-2 8 1 13-8-3-12-9-12-15 0-6 4-10 10-10z"/>
  </g>
</svg>
